<svg width="32" height="33" viewBox="0 0 32 33" fill="none" xmlns="http://www.w3.org/2000/svg">
<g id="Linkedin" clip-path="url(#clip0_591_1887)">
<g id="Group">
<rect id="Background" y="0.959717" width="32" height="32" rx="6" fill="#FBFBFF"/>
<path id="Vector" d="M10.2833 26.8764H6.2V13.4597H10.4V26.8764H10.2833ZM8.18333 11.5931C6.9 11.5931 5.73333 10.5431 5.73333 9.14305C5.73333 7.85972 6.78333 6.69305 8.18333 6.69305C9.46667 6.69305 10.6333 7.74305 10.6333 9.14305C10.6333 10.5431 9.58333 11.5931 8.18333 11.5931ZM25.9167 26.8764H21.7167V20.3431C21.7167 18.8264 21.7167 16.8431 19.6167 16.8431C17.4 16.8431 17.1667 18.4764 17.1667 20.2264V26.8764H12.9667V13.4597H16.9333V15.3264C17.5167 14.2764 18.8 13.2264 20.9 13.2264C25.1 13.2264 25.9167 16.0264 25.9167 19.6431V26.8764Z" fill="#212121"/>
</g>
</g>
<defs>
<clipPath id="clip0_591_1887">
<rect width="32" height="32" fill="white" transform="translate(0 0.959717)"/>
</clipPath>
</defs>
</svg>
